<?xml version="1.0" encoding="iso-8859-1"?>
<!-- Generator: Adobe Illustrator 19.0.0, SVG Export Plug-In . SVG Version: 6.00 Build 0)  -->
<svg version="1.1" id="Capa_1" xmlns="http://www.w3.org/2000/svg" xmlns:xlink="http://www.w3.org/1999/xlink" x="0px" y="0px"
	 viewBox="0 0 469.333 469.333" style="enable-background:new 0 0 469.333 469.333;" xml:space="preserve">
<path style="fill:#303C42;" d="M426.667,0h-384C19.146,0,0,19.135,0,42.667v416c0,4.313,2.604,8.208,6.583,9.854
	c1.313,0.552,2.708,0.813,4.083,0.813c2.771,0,5.5-1.083,7.542-3.125L121.75,362.667h304.917c23.521,0,42.667-19.135,42.667-42.667
	V42.667C469.333,19.135,450.188,0,426.667,0z"/>
<path style="fill:#15BEF0;" d="M448,320c0,11.76-9.563,21.333-21.333,21.333H117.333c-2.833,0-5.542,1.125-7.542,3.125
	l-88.458,88.458V42.667c0-11.76,9.563-21.333,21.333-21.333h384c11.771,0,21.333,9.573,21.333,21.333V320z"/>
<path style="opacity:0.1;enable-background:new    ;" d="M426.667,21.333v245.839c0,29.176-23.652,52.828-52.828,52.828H96
	c-2.829,0-5.542,1.124-7.542,3.124L51.503,360.08c-19.317,19.318-30.17,45.518-30.17,72.837v0l88.46-88.46
	c2-2,4.712-3.123,7.54-3.123h309.333c11.782,0,21.333-9.551,21.333-21.333V42.667C448,30.906,438.438,21.333,426.667,21.333z"/>
<circle style="fill:#303C42;" cx="234.667" cy="181.333" r="117.333"/>
<circle style="fill:#FFCA28;" cx="234.667" cy="181.333" r="96"/>
<g>
	<circle style="fill:#303C42;" cx="192" cy="149.333" r="21.333"/>
	<circle style="fill:#303C42;" cx="277.333" cy="149.333" r="21.333"/>
	<path style="fill:#303C42;" d="M290.625,192.354c-5.604-1.385-11.479,2-12.958,7.677c-0.375,1.417-9.396,34.635-43,34.635
		s-42.625-33.219-43-34.635c-1.458-5.688-7.333-9.188-12.917-7.708c-5.729,1.427-9.188,7.219-7.771,12.927
		c4.396,17.552,23.354,50.75,63.688,50.75s59.292-33.198,63.688-50.75C299.771,199.563,296.313,193.813,290.625,192.354z"/>
</g>
<linearGradient id="SVGID_1_" gradientUnits="userSpaceOnUse" x1="-68.7931" y1="618.8268" x2="-45.4034" y2="607.921" gradientTransform="matrix(21.3333 0 0 -21.3333 1430.1112 13315.2227)">
	<stop  offset="0" style="stop-color:#FFFFFF;stop-opacity:0.2"/>
	<stop  offset="1" style="stop-color:#FFFFFF;stop-opacity:0"/>
</linearGradient>
<path style="fill:url(#SVGID_1_);" d="M426.667,0h-384C19.146,0,0,19.135,0,42.667v416c0,4.313,2.604,8.208,6.583,9.854
	c1.313,0.552,2.708,0.813,4.083,0.813c2.771,0,5.5-1.083,7.542-3.125L121.75,362.667h304.917c23.521,0,42.667-19.135,42.667-42.667
	V42.667C469.333,19.135,450.188,0,426.667,0z"/>
<g>
</g>
<g>
</g>
<g>
</g>
<g>
</g>
<g>
</g>
<g>
</g>
<g>
</g>
<g>
</g>
<g>
</g>
<g>
</g>
<g>
</g>
<g>
</g>
<g>
</g>
<g>
</g>
<g>
</g>
</svg>
